<?xml version="1.0" encoding="UTF-8" standalone="no"?>
<svg width="512" height="512" viewBox="0 0 512 512" fill="none" xmlns="http://www.w3.org/2000/svg">
  <circle cx="256" cy="256" r="256" fill="#0088CC"/>
  <path fill-rule="evenodd" clip-rule="evenodd" d="M127.9 277.5C139.1 272.6 356.4 185.4 365.6 181.8C387.9 173.5 395.5 181.8 390.6 200.2C387.3 213.5 375.3 277.5 367.2 313.5C362.3 335.8 350.7 342.3 337.4 333.9C330.9 329.8 288.2 301.9 275.7 292.7C267.3 286.7 254.8 278.3 272.4 262.3C280 255.1 309.5 228.3 331.8 208.6C335.1 205.3 331.8 200.2 327.7 202.7C295.5 223.4 241.5 256.7 235.8 260.8C226.6 267.3 217.4 270.6 199 264.9C186.5 260.8 174 255.9 165.6 252.6C153.1 247.7 155.6 237.7 165.6 232.8L127.9 277.5Z" fill="white"/>
  
  <!-- QR Code Elements -->
  <rect x="150" y="150" width="30" height="30" fill="white"/>
  <rect x="180" y="150" width="30" height="30" fill="white"/>
  <rect x="210" y="150" width="30" height="30" fill="white"/>
  <rect x="150" y="180" width="30" height="30" fill="white"/>
  <rect x="210" y="180" width="30" height="30" fill="white"/>
  <rect x="150" y="210" width="30" height="30" fill="white"/>
  <rect x="180" y="210" width="30" height="30" fill="white"/>
  <rect x="210" y="210" width="30" height="30" fill="white"/>
  
  <rect x="270" y="150" width="30" height="30" fill="white"/>
  <rect x="300" y="150" width="30" height="30" fill="white"/>
  <rect x="330" y="150" width="30" height="30" fill="white"/>
  <rect x="270" y="180" width="30" height="30" fill="white"/>
  <rect x="330" y="180" width="30" height="30" fill="white"/>
  <rect x="270" y="210" width="30" height="30" fill="white"/>
  <rect x="300" y="210" width="30" height="30" fill="white"/>
  <rect x="330" y="210" width="30" height="30" fill="white"/>
  
  <rect x="150" y="270" width="30" height="30" fill="white"/>
  <rect x="180" y="270" width="30" height="30" fill="white"/>
  <rect x="210" y="270" width="30" height="30" fill="white"/>
  <rect x="150" y="300" width="30" height="30" fill="white"/>
  <rect x="210" y="300" width="30" height="30" fill="white"/>
  <rect x="150" y="330" width="30" height="30" fill="white"/>
  <rect x="180" y="330" width="30" height="30" fill="white"/>
  <rect x="210" y="330" width="30" height="30" fill="white"/>
</svg>
